<svg version="1.2" xmlns="http://www.w3.org/2000/svg" viewBox="0 0 776 530" width="776" height="530"><style>.a{fill:#fff}</style><path class="a" d="m519.4 50.3q4.8 3.3 9.6 6.7 1.1 0.8 2.3 1.6c17.5 12.4 34.3 25.7 50.7 39.4q0.9 0.8 1.8 1.5c6.4 5.4 12.8 10.8 18.9 16.5q3.1 2.8 6.3 5.5c4.7 4.1 9.4 8.3 14 12.5q1.2 1.1 2.4 2.2 2.5 2.2 4.9 4.3 2.5 2.3 5.1 4.6c9.5 8.6 18.6 17.7 27.6 26.8q4.2 4.2 8.4 8.4 2.7 2.6 5.4 5.3 1.2 1.3 2.5 2.5c4.2 4.3 8.3 8.6 12.2 13.2 2.2 2.6 4.6 5 6.9 7.5 5.1 5.6 9.9 11.3 14.6 17.2q1.2 1.5 2.5 3c10.4 12.7 17.9 26.2 16.5 43-3.9 18-15.8 32.6-27.9 45.7q-2.8 3.1-5.5 6.2c-3.3 3.9-6.9 7.5-10.6 11-2.6 2.6-5.1 5.3-7.5 8.1-6.2 7.2-13.1 13.9-20.3 20.1-2.9 2.5-5.5 5.2-8.2 7.9-3.8 3.9-7.7 7.6-11.9 11.2-2.2 1.8-4.3 3.8-6.4 5.7-5.2 4.9-10.5 9.5-16.1 13.9-2.6 2.2-5.1 4.4-7.6 6.7-5.2 4.7-10.6 9.1-16 13.5q-1.7 1.4-3.4 2.8c-8.7 6.9-17.4 13.7-26.3 20.4q-3.7 2.9-7.4 5.7c-9.2 7.1-18.5 14-28.1 20.5-5 3.3-9.8 6.8-14.5 10.4-17.8 13.2-37.4 25.6-60.3 23.2-8.6-2.4-15.1-8.4-19.8-15.8-10.7-20.2-5.9-41 0.5-61.8 4.3-13.6 9.4-26.9 14.6-40.2 3.5-9 6.7-18 9.7-27.2-13.6 1-27.3 2.1-40.9 3.4q-14.9 1.5-29.9 2.7c-17.7 1.5-35.3 3.1-53 4.7q-3.1 0.3-6.3 0.6-6.1 0.5-12.1 1.1c-1 0.1-1 0.1-2 0.2q-12.7 1.2-25.3 2.5c-10.2 1.1-20.3 2-30.5 2.4-12.4 0.5-24.8 1.7-37.2 2.8q-3 0.2-6 0.5c-11.6 1-23.1 1.9-34.7 3q-1 0.1-2.1 0.2c-1 0.1-1 0.1-2 0.2-13.6 1.2-27.2 2.3-40.8 3.2q-3 0.2-6 0.4c-10 0.7-20 1.2-30.1 1.3q-1.2 0-2.5 0c-12.5-0.1-25.1-2.9-34.9-11.2-9.4-9.7-12.6-22.9-13.7-36q-0.1-1.3-0.2-2.7-0.4-4.7-0.8-9.3-0.1-1.7-0.3-3.4c-2.7-32.9-3.3-66.5 0-99.4q0.5-5.2 0.9-10.5 0.4-3.6 0.7-7.2 0.2-1.6 0.3-3.3c1.3-12.7 5.9-22.5 15.4-31.2 10.5-8.4 22.7-9.2 35.7-9.2q1 0 2 0c15.9 0 31.6 0.9 47.4 1.9q4.4 0.3 8.8 0.6c14.6 0.8 29.2 1.8 43.7 3 12.9 1 25.7 1.6 38.6 2.3q20.1 1 40.2 2.5c32.3 2.4 64.6 4.2 96.9 6.1q10.5 0.6 21.1 1.3 11.6 0.7 23.1 1.3 4.9 0.3 9.8 0.6 5.7 0.4 11.4 0.7 2.1 0.1 4.2 0.2c6.7 0.4 13.4 0.8 20.1 0.7-0.4-1-0.4-1-0.8-2.1-39.6-102.6-39.6-102.6-30.2-127.6q0.5-1.2 1-2.3 0.6-1.4 1.2-2.8c5.2-10.5 13-16.9 23.8-21.2 20.2-6.5 40.5 8.4 56.4 19.3z"/></svg>