<svg width="680" height="1200" viewBox="0 0 680 1200" xmlns="http://www.w3.org/2000/svg">
<defs>
  <linearGradient id="skygrad" x1="0" y1="0" x2="0" y2="1">
    <stop offset="0%" stop-color="#b8e4ff"/>
    <stop offset="45%" stop-color="#d8c4f8"/>
    <stop offset="100%" stop-color="#f9d4f4"/>
  </linearGradient>
  <linearGradient id="castlegrad" x1="0" y1="0" x2="0" y2="1">
    <stop offset="0%" stop-color="#f0e0ff"/>
    <stop offset="100%" stop-color="#d4a8f8"/>
  </linearGradient>
  <linearGradient id="towergrad" x1="0" y1="0" x2="0" y2="1">
    <stop offset="0%" stop-color="#c084fc"/>
    <stop offset="100%" stop-color="#9333ea"/>
  </linearGradient>
  <radialGradient id="sungrad" cx="50%" cy="50%" r="50%">
    <stop offset="0%" stop-color="#fff8a0"/>
    <stop offset="60%" stop-color="#ffd966"/>
    <stop offset="100%" stop-color="#ffaa44" stop-opacity="0"/>
  </radialGradient>
  <radialGradient id="glowcastle" cx="50%" cy="100%" r="60%">
    <stop offset="0%" stop-color="#ffeeff" stop-opacity="0.8"/>
    <stop offset="100%" stop-color="#cc88ff" stop-opacity="0"/>
  </radialGradient>
  <radialGradient id="hillpink" cx="50%" cy="0%" r="80%">
    <stop offset="0%" stop-color="#ffd6ec"/>
    <stop offset="100%" stop-color="#f9a8d4"/>
  </radialGradient>
  <radialGradient id="hillyellow" cx="50%" cy="0%" r="80%">
    <stop offset="0%" stop-color="#fef9c3"/>
    <stop offset="100%" stop-color="#fbbf24"/>
  </radialGradient>
  <radialGradient id="hillmint" cx="50%" cy="0%" r="80%">
    <stop offset="0%" stop-color="#d1fae5"/>
    <stop offset="100%" stop-color="#6ee7b7"/>
  </radialGradient>
  <radialGradient id="hillpurp" cx="50%" cy="0%" r="80%">
    <stop offset="0%" stop-color="#ede9fe"/>
    <stop offset="100%" stop-color="#c4b5fd"/>
  </radialGradient>
</defs>
<rect width="680" height="1200" fill="url(#skygrad)"/>
<path d="M-40,900 Q340,400 720,900" fill="none" stroke="#ff9999" stroke-width="14" opacity="0.12"/>
<path d="M-40,918 Q340,422 720,918" fill="none" stroke="#ffbb44" stroke-width="11" opacity="0.12"/>
<path d="M-40,932 Q340,440 720,932" fill="none" stroke="#ffe033" stroke-width="9" opacity="0.12"/>
<path d="M-40,943 Q340,454 720,943" fill="none" stroke="#44dd88" stroke-width="9" opacity="0.12"/>
<path d="M-40,952 Q340,466 720,952" fill="none" stroke="#44aaff" stroke-width="9" opacity="0.12"/>
<path d="M-40,960 Q340,478 720,960" fill="none" stroke="#cc88ff" stroke-width="9" opacity="0.12"/>
<circle cx="90" cy="130" r="70" fill="url(#sungrad)" opacity="0.7"/>
<circle cx="90" cy="130" r="46" fill="#fff8c0"/>
<circle cx="90" cy="130" r="32" fill="#ffe866"/>
<g stroke="#ffd966" stroke-width="3" stroke-linecap="round" opacity="0.5">
  <line x1="90" y1="70" x2="90" y2="50"/>
  <line x1="90" y1="190" x2="90" y2="210"/>
  <line x1="30" y1="130" x2="10" y2="130"/>
  <line x1="150" y1="130" x2="170" y2="130"/>
  <line x1="48" y1="88" x2="34" y2="74"/>
  <line x1="132" y1="172" x2="146" y2="186"/>
  <line x1="132" y1="88" x2="146" y2="74"/>
  <line x1="48" y1="172" x2="34" y2="186"/>
</g>
<g opacity="0.95">
  <ellipse cx="540" cy="110" rx="55" ry="28" fill="#fff"/>
  <ellipse cx="574" cy="96" rx="42" ry="32" fill="#fff"/>
  <ellipse cx="610" cy="108" rx="36" ry="24" fill="#ffe8fb"/>
  <ellipse cx="510" cy="120" rx="30" ry="20" fill="#fff"/>
</g>
<g opacity="0.88">
  <ellipse cx="60" cy="290" rx="48" ry="24" fill="#e8f8ff"/>
  <ellipse cx="96" cy="276" rx="38" ry="28" fill="#fff"/>
  <ellipse cx="128" cy="286" rx="32" ry="22" fill="#fff"/>
</g>
<g opacity="0.82">
  <ellipse cx="580" cy="340" rx="50" ry="22" fill="#fff"/>
  <ellipse cx="614" cy="326" rx="36" ry="26" fill="#ffeeff"/>
  <ellipse cx="548" cy="348" rx="28" ry="18" fill="#fff"/>
</g>
<g opacity="0.78">
  <ellipse cx="310" cy="80" rx="44" ry="20" fill="#fff"/>
  <ellipse cx="338" cy="68" rx="34" ry="24" fill="#fff"/>
  <ellipse cx="364" cy="78" rx="28" ry="18" fill="#fefce8"/>
</g>
<g fill="#ffe066">
  <circle cx="200" cy="60" r="4"/><circle cx="460" cy="48" r="3.5"/>
  <circle cx="630" cy="60" r="3"/><circle cx="160" cy="200" r="3"/>
  <circle cx="520" cy="210" r="3.5"/><circle cx="80" cy="400" r="3"/>
  <circle cx="620" cy="430" r="3"/><circle cx="340" cy="150" r="2.5"/>
  <circle cx="260" cy="310" r="2.5"/><circle cx="450" cy="300" r="2.5"/>
  <circle cx="120" cy="500" r="2"/><circle cx="570" cy="500" r="2"/>
</g>
<g font-family="Georgia,serif" font-weight="800" text-anchor="middle">
  <circle cx="68" cy="580" r="38" fill="#fde68a" opacity="0.95"/>
  <text x="68" y="594" font-size="36" fill="#b45309">1</text>
  <circle cx="612" cy="540" r="38" fill="#bbf7d0" opacity="0.95"/>
  <text x="612" y="554" font-size="36" fill="#16a34a">2</text>
  <circle cx="150" cy="450" r="32" fill="#fecaca" opacity="0.92"/>
  <text x="150" y="462" font-size="30" fill="#dc2626">3</text>
  <circle cx="530" cy="650" r="34" fill="#c7d2fe" opacity="0.92"/>
  <text x="530" y="664" font-size="32" fill="#4f46e5">4</text>
  <circle cx="80" cy="720" r="30" fill="#fbcfe8" opacity="0.9"/>
  <text x="80" y="733" font-size="28" fill="#db2777">5</text>
  <circle cx="600" cy="760" r="30" fill="#a5f3fc" opacity="0.9"/>
  <text x="600" y="773" font-size="28" fill="#0891b2">6</text>
  <circle cx="180" cy="780" r="28" fill="#fef3c7" opacity="0.88"/>
  <text x="180" y="792" font-size="26" fill="#d97706">+</text>
  <circle cx="500" cy="430" r="28" fill="#f0abfc" opacity="0.88"/>
  <text x="500" y="442" font-size="24" fill="#9333ea">=</text>
  <circle cx="340" cy="490" r="26" fill="#99f6e4" opacity="0.85"/>
  <text x="340" y="502" font-size="24" fill="#0f766e">x</text>
</g>
<ellipse cx="340" cy="910" rx="160" ry="120" fill="url(#glowcastle)"/>
<rect x="264" y="830" width="152" height="200" rx="8" fill="url(#castlegrad)"/>
<rect x="264" y="830" width="152" height="200" rx="8" fill="none" stroke="#c084fc" stroke-width="2.5"/>
<rect x="236" y="800" width="50" height="180" rx="8" fill="#ddd6fe"/>
<rect x="394" y="800" width="50" height="180" rx="8" fill="#ddd6fe"/>
<polygon points="236,800 261,750 286,800" fill="url(#towergrad)"/>
<polygon points="394,800 419,750 444,800" fill="url(#towergrad)"/>
<rect x="300" y="760" width="80" height="230" rx="8" fill="#f3e8ff"/>
<polygon points="300,760 340,700 380,760" fill="#9333ea"/>
<ellipse cx="261" cy="840" rx="12" ry="16" fill="#fff8a0" opacity="0.95"/>
<ellipse cx="419" cy="840" rx="12" ry="16" fill="#fff8a0" opacity="0.95"/>
<ellipse cx="340" cy="800" rx="16" ry="20" fill="#ffe066" opacity="0.98"/>
<ellipse cx="312" cy="860" rx="10" ry="14" fill="#fff8a0" opacity="0.8"/>
<ellipse cx="368" cy="860" rx="10" ry="14" fill="#fff8a0" opacity="0.8"/>
<rect x="318" y="950" width="44" height="80" rx="22" fill="#ffe066" opacity="0.9"/>
<line x1="340" y1="700" x2="340" y2="672" stroke="#9333ea" stroke-width="3"/>
<polygon points="340,672 368,682 340,694" fill="#f472b6"/>
<g fill="#e9d5ff">
  <rect x="264" y="824" width="16" height="14" rx="3"/>
  <rect x="288" y="824" width="16" height="14" rx="3"/>
  <rect x="392" y="824" width="16" height="14" rx="3"/>
  <rect x="416" y="824" width="16" height="14" rx="3"/>
</g>
<ellipse cx="340" cy="1160" rx="420" ry="80" fill="#7dd860"/>
<rect x="0" y="1100" width="680" height="110" fill="#b8f09a"/>
<ellipse cx="120" cy="1100" rx="180" ry="110" fill="url(#hillpink)"/>
<ellipse cx="560" cy="1100" rx="180" ry="110" fill="url(#hillyellow)"/>
<ellipse cx="60" cy="1150" rx="130" ry="80" fill="url(#hillmint)"/>
<ellipse cx="620" cy="1150" rx="130" ry="80" fill="url(#hillpurp)"/>
<ellipse cx="260" cy="1145" rx="110" ry="70" fill="#fecdd3"/>
<ellipse cx="430" cy="1148" rx="100" ry="68" fill="#fde68a"/>
<rect x="0" y="1140" width="680" height="65" fill="#a8e96a" opacity="0.7"/>
<line x1="200" y1="1160" x2="196" y2="1090" stroke="#f9a8d4" stroke-width="5" stroke-linecap="round"/>
<circle cx="196" cy="1074" r="22" fill="#f472b6"/>
<circle cx="196" cy="1074" r="14" fill="#fff" opacity="0.4"/>
<line x1="476" y1="1158" x2="480" y2="1088" stroke="#fde68a" stroke-width="5" stroke-linecap="round"/>
<circle cx="480" cy="1072" r="22" fill="#fbbf24"/>
<circle cx="480" cy="1072" r="14" fill="#fff" opacity="0.4"/>
<path d="M36,1160 Q28,1110 36,1068 Q44,1026 36,984" fill="none" stroke="#fca5a5" stroke-width="7" stroke-linecap="round"/>
<path d="M36,1160 Q28,1110 36,1068 Q44,1026 36,984" fill="none" stroke="#fff" stroke-width="3.5" stroke-linecap="round" stroke-dasharray="12,12"/>
<path d="M644,1155 Q652,1108 644,1066 Q636,1024 644,982" fill="none" stroke="#f9a8d4" stroke-width="7" stroke-linecap="round"/>
<path d="M644,1155 Q652,1108 644,1066 Q636,1024 644,982" fill="none" stroke="#fff" stroke-width="3.5" stroke-linecap="round" stroke-dasharray="12,12"/>
<g>
  <rect x="294" y="1108" width="12" height="18" rx="4" fill="#fff"/>
  <ellipse cx="300" cy="1108" rx="20" ry="12" fill="#f87171"/>
  <circle cx="293" cy="1103" r="3.5" fill="#fff" opacity="0.8"/>
  <circle cx="308" cy="1100" r="2.5" fill="#fff" opacity="0.8"/>
</g>
<g>
  <rect x="376" y="1110" width="12" height="18" rx="4" fill="#fff"/>
  <ellipse cx="382" cy="1110" rx="18" ry="11" fill="#fb923c"/>
  <circle cx="374" cy="1105" r="3" fill="#fff" opacity="0.8"/>
  <circle cx="388" cy="1103" r="2.5" fill="#fff" opacity="0.8"/>
</g>
<g fill="#ffe066" opacity="0.75">
  <circle cx="360" cy="870" r="4"/><circle cx="288" cy="900" r="3"/>
  <circle cx="400" cy="920" r="3.5"/><circle cx="230" cy="990" r="3"/>
  <circle cx="460" cy="980" r="3"/>
</g>
</svg>
